REM DIRINDEX 1\2,1\3,1\4,1\5
REM DIRNAME "folder01","folder02","folder03","folder04","folder05"
TITLE ""
FILE "1Q_t_1839-1848.mp3" MP3
  TRACK 01 AUDIO
    TITLE "0:"
    INDEX 01 00:00:00
  TRACK 02 AUDIO
    TITLE "3:cjc172_6517"
    INDEX 01 00:00:18
  TRACK 03 AUDIO
    TITLE "0:"
    INDEX 01 00:01:39
  TRACK 04 AUDIO
    TITLE "4:cjc172_6518"
    INDEX 01 00:01:51
  TRACK 05 AUDIO
    TITLE "0:"
    INDEX 01 00:03:60
  TRACK 06 AUDIO
    TITLE "5:cjc172_6519"
    INDEX 01 00:03:67
  TRACK 07 AUDIO
    TITLE "0:"
    INDEX 01 00:07:36
  TRACK 08 AUDIO
    TITLE "3:cjc172_6520"
    INDEX 01 00:08:08
  TRACK 09 AUDIO
    TITLE "0:"
    INDEX 01 00:09:27
  TRACK 10 AUDIO
    TITLE "4:cjc172_6521"
    INDEX 01 00:09:37
  TRACK 11 AUDIO
    TITLE "0:"
    INDEX 01 00:11:63
  TRACK 12 AUDIO
    TITLE "5:cjc172_6522"
    INDEX 01 00:11:71
  TRACK 13 AUDIO
    TITLE "0:"
    INDEX 01 00:17:07
  TRACK 14 AUDIO
    TITLE "3:cjc172_6523"
    INDEX 01 00:17:54
  TRACK 15 AUDIO
    TITLE "0:"
    INDEX 01 00:18:73
  TRACK 16 AUDIO
    TITLE "4:cjc172_6524"
    INDEX 01 00:19:08
  TRACK 17 AUDIO
    TITLE "0:"
    INDEX 01 00:20:64
  TRACK 18 AUDIO
    TITLE "5:cjc172_6525"
    INDEX 01 00:21:05
  TRACK 19 AUDIO
    TITLE "0:"
    INDEX 01 00:28:07
  TRACK 20 AUDIO
    TITLE "3:cjc172_6526"
    INDEX 01 00:28:56
  TRACK 21 AUDIO
    TITLE "0:"
    INDEX 01 00:30:17
  TRACK 22 AUDIO
    TITLE "4:cjc172_6527"
    INDEX 01 00:30:27
  TRACK 23 AUDIO
    TITLE "0:"
    INDEX 01 00:32:02
  TRACK 24 AUDIO
    TITLE "5:cjc172_6528"
    INDEX 01 00:32:10
  TRACK 25 AUDIO
    TITLE "0:"
    INDEX 01 00:38:64
  TRACK 26 AUDIO
    TITLE "3:cjc172_6529"
    INDEX 01 00:39:36
  TRACK 27 AUDIO
    TITLE "0:"
    INDEX 01 00:40:55
  TRACK 28 AUDIO
    TITLE "4:cjc172_6530"
    INDEX 01 00:40:67
  TRACK 29 AUDIO
    TITLE "0:"
    INDEX 01 00:42:01
  TRACK 30 AUDIO
    TITLE "5:cjc172_6531"
    INDEX 01 00:42:09
  TRACK 31 AUDIO
    TITLE "0:"
    INDEX 01 00:46:24
  TRACK 32 AUDIO
    TITLE "3:cjc172_6532"
    INDEX 01 00:46:69
  TRACK 33 AUDIO
    TITLE "0:"
    INDEX 01 00:48:11
  TRACK 34 AUDIO
    TITLE "4:cjc172_6533"
    INDEX 01 00:48:21
  TRACK 35 AUDIO
    TITLE "0:"
    INDEX 01 00:49:19
  TRACK 36 AUDIO
    TITLE "5:cjc172_6534"
    INDEX 01 00:49:28
  TRACK 37 AUDIO
    TITLE "0:"
    INDEX 01 00:54:43
  TRACK 38 AUDIO
    TITLE "3:cjc172_6535"
    INDEX 01 00:55:17
  TRACK 39 AUDIO
    TITLE "0:"
    INDEX 01 00:56:46
  TRACK 40 AUDIO
    TITLE "4:cjc172_6536"
    INDEX 01 00:56:54
  TRACK 41 AUDIO
    TITLE "0:"
    INDEX 01 00:57:65
  TRACK 42 AUDIO
    TITLE "5:cjc172_6537"
    INDEX 01 00:57:73
  TRACK 43 AUDIO
    TITLE "0:"
    INDEX 01 01:02:64
  TRACK 44 AUDIO
    TITLE "3:cjc172_6538"
    INDEX 01 01:03:36
  TRACK 45 AUDIO
    TITLE "0:"
    INDEX 01 01:04:55
  TRACK 46 AUDIO
    TITLE "4:cjc172_6539"
    INDEX 01 01:04:63
  TRACK 47 AUDIO
    TITLE "0:"
    INDEX 01 01:05:74
  TRACK 48 AUDIO
    TITLE "5:cjc172_6540"
    INDEX 01 01:06:07
  TRACK 49 AUDIO
    TITLE "0:"
    INDEX 01 01:12:25
  TRACK 50 AUDIO
    TITLE "3:cjc172_6541"
    INDEX 01 01:12:72
  TRACK 51 AUDIO
    TITLE "0:"
    INDEX 01 01:14:22
  TRACK 52 AUDIO
    TITLE "4:cjc172_6542"
    INDEX 01 01:14:32
  TRACK 53 AUDIO
    TITLE "0:"
    INDEX 01 01:18:26
  TRACK 54 AUDIO
    TITLE "5:cjc172_6543"
    INDEX 01 01:18:34
  TRACK 55 AUDIO
    TITLE "0:"
    INDEX 01 01:22:67
  TRACK 56 AUDIO
    TITLE "3:cjc172_6544"
    INDEX 01 01:23:41
  TRACK 57 AUDIO
    TITLE "0:"
    INDEX 01 01:24:70
  TRACK 58 AUDIO
    TITLE "4:cjc172_6545"
    INDEX 01 01:25:05
  TRACK 59 AUDIO
    TITLE "0:"
    INDEX 01 01:26:12
  TRACK 60 AUDIO
    TITLE "5:cjc172_6546"
    INDEX 01 01:26:20
  TRACK 61 AUDIO
    TITLE "0:"
    INDEX 01 01:33:39
